<?xml version="1.0" ?><svg id="Layer_1" style="enable-background:new 0 0 128 128;" version="1.1" viewBox="0 0 128 128" xml:space="preserve" xmlns="http://www.w3.org/2000/svg" xmlns:xlink="http://www.w3.org/1999/xlink"><style type="text/css">
	.st0{fill:#1C4FBE;}
	.st1{fill:#EE693F;}
	.st2{fill:#FFB8CB;}
	.st3{fill:#F94003;}
	.st4{fill:#DEA740;}
	.st5{fill:#1CB6BE;}
	.st6{fill:#BCCE3E;}
	.st7{fill:#EDEFF2;}
	.st8{fill:#684E3C;}
	.st9{fill:#100F0D;}
	.st10{fill:#5B4332;}
	.st11{fill:#5C7242;}
	.st12{fill:#E1B0AF;}
	.st13{fill:#EC5527;}
	.st14{fill:#057590;}
	.st15{fill:#771C39;}
	.st16{fill:#F8A70C;}
	.st17{fill:#F06522;}
	.st18{fill:#FFFFFF;}
	.st19{fill:#CC7C2C;}
	.st20{fill:#5D6124;}
	.st21{fill:#E6AA30;}
	.st22{fill:#2AB06A;}
	.st23{fill:#725948;}
	.st24{fill:#1A1613;}
	.st25{fill:none;}
	.st26{fill:#EE4D4C;}
</style><g><path class="st3" d="M103.4,93c-11.1,22.6-44.5,37.4-71,30.6c-16.9-4.4-11.1-18.1,0.8-24.1c12.1-6.1,23.9-12.4,32.5-23.2   c10.3-12.7,17-54.3,41.5-48C119,31.3,116.9,65.5,103.4,93z"/></g><path class="st22" d="M20.3,20.5c-2.9,1.9-3.5,5.8-1.3,8.5c6.4,7.8,13.3,15.2,18.7,23.8c3.7,5.9,11.1,3.3,15.6-4.8  c4.1-7.4,8-14.9,12-22.3c0.4-0.8,3.4-6.7,5.5-10.7c1.1-2.1,0.5-4.7-1.4-6.1l0,0c-2.3-1.7-5.7-1.1-7.1,1.4  c-4.2,7.1-9.8,18.7-13.4,22.8c-1.6-7.4-1.3-15-1.2-22.1c0-2.6-1.9-4.7-4.4-5l0,0c-3.4-0.4-6.2,2.4-5.9,5.8c0.5,6.4,0.4,13-0.2,20.3  c-3.3-3.8-6.4-7.2-9.3-10.5C25.9,19.4,22.7,19,20.3,20.5L20.3,20.5z"/></svg>