<?xml version="1.0" ?><svg id="Layer_1" style="enable-background:new 0 0 128 128;" version="1.1" viewBox="0 0 128 128" xml:space="preserve" xmlns="http://www.w3.org/2000/svg" xmlns:xlink="http://www.w3.org/1999/xlink"><style type="text/css">
	.st0{fill:#1C4FBE;}
	.st1{fill:#EE693F;}
	.st2{fill:#FFB8CB;}
	.st3{fill:#F94003;}
	.st4{fill:#DEA740;}
	.st5{fill:#1CB6BE;}
	.st6{fill:#BCCE3E;}
	.st7{fill:#EDEFF2;}
	.st8{fill:#684E3C;}
	.st9{fill:#100F0D;}
	.st10{fill:#5B4332;}
	.st11{fill:#5C7242;}
	.st12{fill:#E1B0AF;}
	.st13{fill:#EC5527;}
	.st14{fill:#057590;}
	.st15{fill:#771C39;}
	.st16{fill:#F8A70C;}
	.st17{fill:#F06522;}
	.st18{fill:#FFFFFF;}
	.st19{fill:#CC7C2C;}
	.st20{fill:#5D6124;}
	.st21{fill:#E6AA30;}
	.st22{fill:#2AB06A;}
	.st23{fill:#725948;}
	.st24{fill:#1A1613;}
	.st25{fill:none;}
	.st26{fill:#EE4D4C;}
</style><g/><path class="st6" d="M36.9,57.3c1.9,15.9,2.3,31.8,1.6,47.8c-0.2,5.1-1.6,11.4,5.9,13.5c6.3,1.8,9.3-2.8,12.3-6.8  c11.1-15,22-30.2,33-45.3c-3.5-5.1-8.6-2.8-13.1-2.9c-7.4,9.1-14.7,18.1-23.6,29c-1-13.2-1.9-24.5-2.8-35.7l-7.1-9.8L36.9,57.3z"/><path class="st3" d="M89.7,66.5c3-0.9,6-1.8,9-2.6c14.9-4.2,20.6-15.1,15.4-29.6C109.5,21.4,94.4,15.9,80.7,22  c-11,4.9-15.4,21.1-8.8,32.4c1.7,3,4.9,5.2,4.7,9.2L89.7,66.5z"/><path class="st3" d="M50.2,56.9c12.8-5.5,15-16,13.2-28.1c-1.4-9.7-6.7-16.7-16.5-19c-12.9-3.1-24.4,3.9-27.8,16.7  c-4.3,16.1,1.6,26.3,17.9,30.8C41.4,57.2,45.8,57,50.2,56.9z"/></svg>