<?xml version="1.0" ?><svg id="Layer_1" style="enable-background:new 0 0 128 128;" version="1.1" viewBox="0 0 128 128" xml:space="preserve" xmlns="http://www.w3.org/2000/svg" xmlns:xlink="http://www.w3.org/1999/xlink"><style type="text/css">
	.st0{fill:#1C4FBE;}
	.st1{fill:#EE693F;}
	.st2{fill:#FFB8CB;}
	.st3{fill:#F94003;}
	.st4{fill:#DEA740;}
	.st5{fill:#1CB6BE;}
	.st6{fill:#BCCE3E;}
	.st7{fill:#EDEFF2;}
	.st8{fill:#684E3C;}
	.st9{fill:#100F0D;}
	.st10{fill:#5B4332;}
	.st11{fill:#5C7242;}
	.st12{fill:#E1B0AF;}
	.st13{fill:#EC5527;}
	.st14{fill:#057590;}
	.st15{fill:#771C39;}
	.st16{fill:#F8A70C;}
	.st17{fill:#F06522;}
	.st18{fill:#FFFFFF;}
	.st19{fill:#CC7C2C;}
	.st20{fill:#5D6124;}
	.st21{fill:#E6AA30;}
	.st22{fill:#2AB06A;}
	.st23{fill:#725948;}
	.st24{fill:#1A1613;}
	.st25{fill:none;}
	.st26{fill:#EE4D4C;}
</style><path class="st21" d="M29.9,18c12.6-4.1,22.5-1.3,30.6,9.1c5.1,6.5,30.2,25,40.5,32.6c20,14.6,22.5,43.9,5.1,57.1  c-19,14.5-52.6,6.9-58.5-15.7c-6.4-24.6-11.6-36.9-28.2-57c-4.8-5.8-3.2-16.7,4.4-20.3L29.9,18z"/><path class="st8" d="M23.8,23.9c2.3-1.6,6.1-1.8,6.1-5.9c-2.6-3.8-5.2-7.5-7.7-11.3C21,5,19.9,3.4,17.5,4.8  c-2.5,1.4-3.1,3.2-1.6,5.6C18.5,14.9,21.2,19.4,23.8,23.9z"/><path d="M98.6,83.5c-4.6,2-7.4,4.6-5.7,9.4c1.6,4.4,5.3,4.7,9,3.1c3.8-1.7,6.9-4.5,5.3-9.2C105.5,82.1,101.7,82.9,98.6,83.5z"/></svg>