<svg id="_024_HOLIDAYS" data-name="024_HOLIDAYS" xmlns="http://www.w3.org/2000/svg" viewBox="0 0 24 24"><defs><style>.cls-1{fill:#333;}</style></defs><path class="cls-1" d="M5,20H3a1,1,0,0,1-1-1V9A1,1,0,0,1,4,9v.5a3.5,3.5,0,0,0,7,0V9a1,1,0,0,1,2,0v.5A5.51,5.51,0,0,1,7.5,15,5.45,5.45,0,0,1,4,13.74V18H5a1,1,0,0,1,0,2Z"/><path class="cls-1" d="M21,20H9a1,1,0,0,1,0-2H20V13.74A5.45,5.45,0,0,1,16.5,15a1,1,0,0,1,0-2A3.5,3.5,0,0,0,20,9.5V9a1,1,0,0,1,2,0V19A1,1,0,0,1,21,20Z"/><path class="cls-1" d="M12,10a3,3,0,1,1,3-3A3,3,0,0,1,12,10Zm0-4a1,1,0,1,0,1,1A1,1,0,0,0,12,6Z"/><path class="cls-1" d="M21,10a2,2,0,1,1,2-2A2,2,0,0,1,21,10Zm0-2h0Zm0,0h0Zm0,0h0Zm0,0h0Zm0,0h0Zm0,0h0Zm0,0h0Zm0,0h0Z"/><path class="cls-1" d="M3,10A2,2,0,1,1,5,8,2,2,0,0,1,3,10ZM3,8H3ZM3,8H3ZM3,8H3ZM3,8H3ZM3,8H3ZM3,8H3ZM3,8H3ZM3,8H3Z"/><path class="cls-1" d="M16.5,15A5.51,5.51,0,0,1,11,9.5V9a1,1,0,0,1,2,0v.5A3.5,3.5,0,0,0,16.5,13a1,1,0,0,1,0,2Z"/></svg>