<svg id="_024_HOLIDAYS" data-name="024_HOLIDAYS" xmlns="http://www.w3.org/2000/svg" viewBox="0 0 24 24"><defs><style>.cls-1{fill:#333;}</style></defs><path class="cls-1" d="M9.6,17A1,1,0,0,1,9,15.17L10.76,14h-3a2,2,0,0,0-.9.21L3.45,15.89a1,1,0,0,1-.9-1.78l3.37-1.69A4.09,4.09,0,0,1,7.71,12h4.67a1.5,1.5,0,0,1,.84,2.74l-3.06,2.09A1,1,0,0,1,9.6,17Z"/><path class="cls-1" d="M3,22a1,1,0,0,1-.89-.55,1,1,0,0,1,.44-1.34l4-2A1,1,0,0,1,7,18h3.79a3,3,0,0,0,1.66-.5l8-5.33a1,1,0,1,1,1.1,1.66l-8,5.33a5,5,0,0,1-2.77.84H7.24L3.45,21.89A.93.93,0,0,1,3,22Z"/><path class="cls-1" d="M12,5a1,1,0,0,1-1-1V3a1,1,0,0,1,2,0V4A1,1,0,0,1,12,5Z"/><path class="cls-1" d="M6,11H5A1,1,0,0,1,5,9H6a1,1,0,0,1,0,2Z"/><path class="cls-1" d="M19,11H18a1,1,0,0,1,0-2h1a1,1,0,0,1,0,2Z"/><path class="cls-1" d="M16.24,6.76a1,1,0,0,1-.7-.3,1,1,0,0,1,0-1.41l.7-.71a1,1,0,1,1,1.42,1.42l-.71.7A1,1,0,0,1,16.24,6.76Z"/><path class="cls-1" d="M7.76,6.76a1,1,0,0,1-.71-.3l-.71-.7A1,1,0,0,1,7.76,4.34l.7.71a1,1,0,0,1,0,1.41A1,1,0,0,1,7.76,6.76Z"/><path class="cls-1" d="M14,11.7a1.1,1.1,0,0,1-.4-.08,1,1,0,0,1-.52-1.32,1.19,1.19,0,0,0,.1-.46,1.15,1.15,0,0,0-2.29,0,1,1,0,0,1-2,0,3.15,3.15,0,0,1,6.29,0,3,3,0,0,1-.27,1.26A1,1,0,0,1,14,11.7Z"/></svg>