<svg id="_024_HOLIDAYS" data-name="024_HOLIDAYS" xmlns="http://www.w3.org/2000/svg" viewBox="0 0 24 24"><defs><style>.cls-1{fill:#333;}</style></defs><path class="cls-1" d="M9.6,17A1,1,0,0,1,9,15.17L10.76,14h-3a2,2,0,0,0-.9.21L3.45,15.89a1,1,0,0,1-.9-1.78l3.37-1.69A4.09,4.09,0,0,1,7.71,12h4.67a1.5,1.5,0,0,1,.84,2.74l-3.06,2.09A1,1,0,0,1,9.6,17Z"/><path class="cls-1" d="M3,22a1,1,0,0,1-.89-.55,1,1,0,0,1,.44-1.34l4-2A1,1,0,0,1,7,18h3.79a3,3,0,0,0,1.66-.5l8-5.33a1,1,0,1,1,1.1,1.66l-8,5.33a5,5,0,0,1-2.77.84H7.24L3.45,21.89A.93.93,0,0,1,3,22Z"/><path class="cls-1" d="M13.2,2.14,14.14,5h3.08a.33.33,0,0,1,.19.59L15,7.46l.9,2.87a.32.32,0,0,1-.49.36L12.89,8.93l-2.48,1.76a.33.33,0,0,1-.5-.36l.91-2.87L8.37,5.59A.33.33,0,0,1,8.56,5h3.08l.94-2.86A.33.33,0,0,1,13.2,2.14Z"/></svg>